<svg width="198mm" height="199mm" version="1.1" viewBox="0 0 198 199" xmlns="http://www.w3.org/2000/svg"><path d="m146 148 24-14m-34-102v33m-1 10 25 14m-119 7-14 20m75 18v-39m-9-6v50m29 17-29-17-33 11m119-43v32l-29 17m-90-77 33 11 43-25 29 16m-131 9-17 24 16 23" fill="none" stroke="#000" stroke-width="2"/>
 <g font-family="Arial">
 <g font-size="35px"><text x="122" y="27">NH<tspan dy="9" font-size="22px">2</tspan></text><text x="32" y="87">N</text><text x="166" y="102">N</text><text x="124" y="177">N</text><text x="34" y="168">N</text><text x="34" y="196">H</text></g>
 <g fill="#f00" font-size="25px"><text x="187" y="83">1</text><text x="182" y="151">2</text><text x="141" y="64">6</text><text x="86" y="84">5</text><text x="1" y="124">8</text><text x="18" y="159">9</text><text x="83" y="160">4</text><text x="129" y="197">3</text><text x="40" y="60">7</text></g></g></svg>