<svg viewBox="0 0 64 64" xmlns="http://www.w3.org/2000/svg" fill="none">
  <defs>
    <radialGradient id="atomFront" cx="30%" cy="28%" r="78%" fx="26%" fy="24%">
      <stop offset="0" stop-color="#eff6ff" />
      <stop offset="0.16" stop-color="#bfdbfe" />
      <stop offset="0.45" stop-color="#3b82f6" />
      <stop offset="0.85" stop-color="#1e3a8a" />
      <stop offset="1" stop-color="#0b1948" />
    </radialGradient>
    <radialGradient id="atomBack" cx="36%" cy="34%" r="86%" fx="32%" fy="30%">
      <stop offset="0" stop-color="#93c5fd" />
      <stop offset="0.22" stop-color="#3b82f6" />
      <stop offset="0.65" stop-color="#1e3a8a" />
      <stop offset="1" stop-color="#070f33" />
    </radialGradient>
    <linearGradient id="strand" x1="32" y1="0" x2="32" y2="64" gradientUnits="userSpaceOnUse">
      <stop offset="0" stop-color="#1e3a8a" />
      <stop offset="0.5" stop-color="#2563eb" />
      <stop offset="1" stop-color="#1e3a8a" />
    </linearGradient>
    <linearGradient id="rungBar" x1="20" y1="0" x2="44" y2="0" gradientUnits="userSpaceOnUse">
      <stop offset="0" stop-color="#1e3a8a" />
      <stop offset="0.5" stop-color="#60a5fa" />
      <stop offset="1" stop-color="#1e3a8a" />
    </linearGradient>
  </defs>

  <g>
    <line x1="23.5" y1="8" x2="40.5" y2="8" stroke="url(#rungBar)" stroke-width="2" stroke-linecap="round" opacity="0.9" />
    <line x1="23.5" y1="24" x2="40.5" y2="24" stroke="url(#rungBar)" stroke-width="2" stroke-linecap="round" opacity="0.9" />
    <line x1="23.5" y1="40" x2="40.5" y2="40" stroke="url(#rungBar)" stroke-width="2" stroke-linecap="round" opacity="0.9" />
    <line x1="23.5" y1="56" x2="40.5" y2="56" stroke="url(#rungBar)" stroke-width="2" stroke-linecap="round" opacity="0.9" />

    <path d="M 32 0 C 48 8, 48 24, 32 32 C 16 40, 16 56, 32 64"
          stroke="url(#strand)" stroke-width="3.2" stroke-linecap="round" opacity="0.95" />
    <path d="M 32 0 C 16 8, 16 24, 32 32 C 48 40, 48 56, 32 64"
          stroke="url(#strand)" stroke-width="3.2" stroke-linecap="round" opacity="0.95" />

    <circle cx="40.5" cy="8" r="5" fill="url(#atomFront)" />
    <circle cx="23.5" cy="8" r="4.6" fill="url(#atomBack)" />
    <circle cx="40.5" cy="24" r="4.6" fill="url(#atomBack)" />
    <circle cx="23.5" cy="24" r="5" fill="url(#atomFront)" />
    <circle cx="23.5" cy="40" r="4.6" fill="url(#atomBack)" />
    <circle cx="40.5" cy="40" r="5" fill="url(#atomFront)" />
    <circle cx="23.5" cy="56" r="5" fill="url(#atomFront)" />
    <circle cx="40.5" cy="56" r="4.6" fill="url(#atomBack)" />
  </g>
</svg>
